<svg width="24" height="20" viewBox="0 0 24 20" fill="none" xmlns="http://www.w3.org/2000/svg">
<path d="M23.1696 6.57446C23.6802 7.14893 23.9994 7.85106 23.9994 8.68084V14.1064C23.9994 14.9362 23.4249 15.6383 22.5951 15.8298V18.5106C22.5951 19.2127 22.0207 19.7872 21.3185 19.7872H19.9781C19.276 19.7872 18.7015 19.2127 18.7015 18.5106V15.8936H5.36111V18.5106C5.36111 19.2127 4.78664 19.7872 4.08452 19.7872H2.74409C2.04197 19.7872 1.4675 19.2127 1.4675 18.5106V15.8936C0.637712 15.7021 0.0632438 15 0.0632438 14.1702V8.74467C0.0632438 7.91489 0.382392 7.21276 0.89303 6.63829C0.446222 6.63829 -0.000585884 6.38297 0.0632438 5.93616V4.65957C0.0632438 4.27659 0.382392 3.95744 0.765371 3.95744H3.38239L4.08452 1.27659C4.27601 0.510638 4.97813 0 5.74409 0H18.1909C18.9568 0 19.659 0.510638 19.8505 1.27659L20.6164 4.02127H23.2334C23.6164 4.02127 23.9356 4.34042 23.9356 4.7234V5.99999C23.9994 6.38297 23.5526 6.63829 23.1696 6.57446Z" fill="#8DD061"/>
<path d="M5.17021 11.7447H1.78723C1.59574 11.7447 1.46808 11.8723 1.46808 12.1276C1.46808 12.3191 1.59574 12.4468 1.78723 12.4468H5.17021C5.3617 12.4468 5.48936 12.3191 5.48936 12.1276C5.48936 11.9362 5.3617 11.7447 5.17021 11.7447ZM6.25531 7.91489C6.12765 7.7234 5.93616 7.65957 5.74468 7.65957H2.10638C1.7234 7.65957 1.40425 7.97872 1.40425 8.36169V10.0851C1.40425 10.4681 1.7234 10.7872 2.10638 10.7872H5.17021C5.48936 10.7872 5.74468 10.5957 5.80851 10.3404L6.31914 8.61701C6.4468 8.29786 6.38297 8.04255 6.25531 7.91489ZM5.17021 10.0213H2.17021V8.29786H5.74468L5.17021 10.0213ZM14.234 9.70212H10.0851C9.89361 9.70212 9.76595 9.82978 9.76595 10.0213C9.76595 10.2128 9.89361 10.4042 10.0851 10.4042H14.234C14.4255 10.4042 14.5532 10.2766 14.5532 10.0213C14.617 9.82978 14.4255 9.70212 14.234 9.70212ZM17.6808 11.4894L16.5319 8.10637C16.4042 7.78723 16.1489 7.59574 15.8298 7.59574H8.10638C7.78723 7.59574 7.53191 7.78723 7.40425 8.10637L6.31914 11.4894C6.25531 11.6808 6.25531 11.9362 6.4468 12.1276C6.57446 12.3191 6.76595 12.4468 7.02127 12.4468H17.0425C17.2979 12.4468 17.4893 12.3191 17.617 12.1276C17.7447 11.9362 17.7447 11.7447 17.6808 11.4894ZM17.0425 11.7447H7.02127L8.17021 8.36169H15.8936L17.0425 11.7447ZM14.234 9.70212H10.0851C9.89361 9.70212 9.76595 9.82978 9.76595 10.0213C9.76595 10.2128 9.89361 10.4042 10.0851 10.4042H14.234C14.4255 10.4042 14.5532 10.2766 14.5532 10.0213C14.617 9.82978 14.4255 9.70212 14.234 9.70212ZM14.234 9.70212H10.0851C9.89361 9.70212 9.76595 9.82978 9.76595 10.0213C9.76595 10.2128 9.89361 10.4042 10.0851 10.4042H14.234C14.4255 10.4042 14.5532 10.2766 14.5532 10.0213C14.617 9.82978 14.4255 9.70212 14.234 9.70212ZM22.2127 11.7447H18.8298C18.6383 11.7447 18.5106 11.8723 18.5106 12.1276C18.5106 12.3191 18.6383 12.4468 18.8298 12.4468H22.2127C22.4042 12.4468 22.5957 12.3191 22.5957 12.1276C22.5319 11.9362 22.4042 11.7447 22.2127 11.7447ZM21.8936 7.59574H18.2553C18.0638 7.59574 17.8723 7.7234 17.7447 7.85106C17.617 8.04255 17.5532 8.23403 17.617 8.48935L18.1915 10.2128C18.2553 10.4681 18.5106 10.7234 18.8298 10.7234H21.8936C22.2766 10.7234 22.5957 10.4042 22.5957 10.0213V8.29786C22.5319 7.91489 22.2766 7.59574 21.8936 7.59574ZM21.8936 10.0213H18.8298L18.3191 8.29786H21.8936V10.0213ZM23.9361 5.93616V4.65957C23.9361 4.27659 23.617 3.95744 23.234 3.95744H20.617L19.9149 1.27659C19.7234 0.510638 19.0213 0 18.2553 0H5.74468C4.97872 0 4.27659 0.510638 4.0851 1.27659L3.31915 4.02127H0.702127C0.319149 4.02127 0 4.34042 0 4.7234V5.99999C0 6.4468 0.382978 6.76595 0.829786 6.70212C0.319149 7.27659 0 7.97872 0 8.8085V14.234C0 15.0638 0.574468 15.7659 1.40425 15.9574V18.5106C1.40425 19.2127 1.97872 19.7872 2.68085 19.7872H4.02127C4.7234 19.7872 5.29787 19.2127 5.29787 18.5106V15.8936H18.5745V18.5106C18.5745 19.2127 19.1489 19.7872 19.851 19.7872H21.1915C21.8936 19.7872 22.4681 19.2127 22.4681 18.5106V15.8936C23.2979 15.7021 23.8723 15 23.8723 14.1702V8.74467C23.8723 7.91489 23.5532 7.21276 23.0425 6.63829C23.5532 6.63829 24 6.38297 23.9361 5.93616ZM4.7234 1.46808C4.85106 1.02128 5.29787 0.702127 5.74468 0.702127H18.1915C18.6383 0.702127 19.0851 1.02128 19.2127 1.46808L20.3617 5.55319H3.57447L4.7234 1.46808ZM0.765957 5.87233V4.7234H3.12766L2.87234 5.55319C2.48936 5.61702 2.10638 5.74468 1.78723 5.87233H0.765957ZM4.65957 18.5106C4.65957 18.8298 4.40425 19.0851 4.0851 19.0851H2.74468C2.42553 19.0851 2.17021 18.8298 2.17021 18.5106V15.8936H4.7234V18.5106H4.65957ZM8.87233 15.1915L9.25531 14.3617C9.25531 14.2979 9.31914 14.2979 9.38297 14.2979H14.7447C14.8085 14.2979 14.8085 14.2979 14.8723 14.3617L15.2553 15.1915H8.87233ZM21.8936 18.5106C21.8936 18.8298 21.6383 19.0851 21.3191 19.0851H19.9787C19.6596 19.0851 19.4042 18.8298 19.4042 18.5106V15.8936H21.9574V18.5106H21.8936ZM23.234 8.74467V14.1702C23.234 14.7447 22.7872 15.1915 22.1489 15.1915C20.4893 15.1915 17.4893 15.1915 15.8298 15.1915L15.3191 14.1064C15.1915 13.7872 14.8723 13.5957 14.5532 13.5957H9.19148C8.87233 13.5957 8.55318 13.7872 8.42552 14.1064L7.91489 15.1915H1.59574C1.02128 15.1915 0.574468 14.7447 0.574468 14.1702V8.74467C0.574468 7.40425 1.65957 6.31914 3 6.31914H20.617C22.1489 6.25531 23.234 7.34042 23.234 8.74467ZM23.234 5.87233H22.2127C21.8936 5.68085 21.5106 5.61702 21.1276 5.55319L20.8723 4.65957H23.234V5.87233ZM21.8936 7.59574H18.2553C18.0638 7.59574 17.8723 7.7234 17.7447 7.85106C17.617 8.04255 17.5532 8.23403 17.617 8.48935L18.1915 10.2128C18.2553 10.4681 18.5106 10.7234 18.8298 10.7234H21.8936C22.2766 10.7234 22.5957 10.4042 22.5957 10.0213V8.29786C22.5319 7.91489 22.2766 7.59574 21.8936 7.59574ZM21.8936 10.0213H18.8298L18.3191 8.29786H21.8936V10.0213ZM22.2127 11.7447H18.8298C18.6383 11.7447 18.5106 11.8723 18.5106 12.1276C18.5106 12.3191 18.6383 12.4468 18.8298 12.4468H22.2127C22.4042 12.4468 22.5957 12.3191 22.5957 12.1276C22.5319 11.9362 22.4042 11.7447 22.2127 11.7447ZM16.5319 8.10637C16.4042 7.78723 16.1489 7.59574 15.8298 7.59574H8.10638C7.78723 7.59574 7.53191 7.78723 7.40425 8.10637L6.31914 11.4894C6.25531 11.6808 6.25531 11.9362 6.4468 12.1276C6.57446 12.3191 6.76595 12.4468 7.02127 12.4468H17.0425C17.2979 12.4468 17.4893 12.3191 17.617 12.1276C17.7447 11.9362 17.8085 11.6808 17.7447 11.4894L16.5319 8.10637ZM17.0425 11.7447H7.02127L8.17021 8.36169H15.8936L17.0425 11.7447ZM14.234 9.70212H10.0851C9.89361 9.70212 9.76595 9.82978 9.76595 10.0213C9.76595 10.2128 9.89361 10.4042 10.0851 10.4042H14.234C14.4255 10.4042 14.5532 10.2766 14.5532 10.0213C14.617 9.82978 14.4255 9.70212 14.234 9.70212ZM6.25531 7.91489C6.12765 7.7234 5.93616 7.65957 5.74468 7.65957H2.10638C1.7234 7.65957 1.40425 7.97872 1.40425 8.36169V10.0851C1.40425 10.4681 1.7234 10.7872 2.10638 10.7872H5.17021C5.48936 10.7872 5.74468 10.5957 5.80851 10.3404L6.31914 8.61701C6.4468 8.29786 6.38297 8.04255 6.25531 7.91489ZM5.17021 10.0213H2.17021V8.29786H5.74468L5.17021 10.0213ZM5.17021 11.7447H1.78723C1.59574 11.7447 1.46808 11.8723 1.46808 12.1276C1.46808 12.3191 1.59574 12.4468 1.78723 12.4468H5.17021C5.3617 12.4468 5.48936 12.3191 5.48936 12.1276C5.48936 11.9362 5.3617 11.7447 5.17021 11.7447Z" fill="black"/>
</svg>
