<svg width="122" height="101" viewBox="0 0 122 101" fill="none" xmlns="http://www.w3.org/2000/svg">
<path d="M117.4 33.8C120 36.6 121.5 40.4 121.5 44.5V72C121.5 76.3 118.5 79.9 114.4 80.7V94C114.4 97.6 111.5 100.5 107.9 100.5H101C97.4 100.5 94.5 97.6 94.5 94V80.9H27.4V94C27.4 97.6 24.5 100.5 20.9 100.5H14.1C10.5 100.5 7.60002 97.6 7.60002 94V80.8C3.60002 80 0.500017 76.4 0.500017 72.1V44.6C0.500017 40.5 2.10002 36.7 4.60002 33.9C2.50002 34.2 0.400017 32.7 0.500017 30.5V24.2C0.500017 22.3 2.00002 20.8 3.90002 20.8H17L20.9 7C22 3.2 25.5 0.5 29.4 0.5H92.5C96.5 0.5 100 3.2 101 7L104.9 20.8H118C119.9 20.8 121.4 22.3 121.4 24.2V30.5C121.5 32.6 119.4 34.1 117.4 33.8Z" fill="#8DD061"/>
<path d="M26.5 59.9H9.4C8.4 59.9 7.6 60.7 7.6 61.7C7.6 62.7 8.4 63.5 9.4 63.5H26.5C27.5 63.5 28.3 62.7 28.3 61.7C28.2 60.7 27.4 59.9 26.5 59.9ZM32 40.4C31.4 39.5 30.3 39 29.2 39H11C9.1 39 7.6 40.5 7.6 42.4V51.1C7.6 53 9.1 54.5 11 54.5H26.5C28 54.5 29.3 53.5 29.8 52.1L32.5 43.4C32.9 42.4 32.7 41.3 32 40.4ZM26.4 51H11.1V42.5H29.1L26.4 51ZM72.4 49.4H51.6C50.6 49.4 49.8 50.2 49.8 51.2C49.8 52.2 50.6 53 51.6 53H72.4C73.4 53 74.2 52.2 74.2 51.2C74.2 50.2 73.4 49.4 72.4 49.4ZM89.8 58.6L84 41.5C83.5 40 82.1 39 80.5 39H41.4C39.8 39 38.4 40 37.9 41.5L32.1 58.6C31.7 59.7 31.9 60.9 32.6 61.9C33.3 62.9 34.4 63.4 35.6 63.4H86.3C87.5 63.4 88.6 62.8 89.3 61.9C90 61 90.2 59.7 89.8 58.6ZM86.5 59.9H86.4H35.6H35.5V59.8L41.3 42.7L41.4 42.6H80.5C80.6 42.6 80.6 42.6 80.6 42.7L86.4 59.8C86.5 59.8 86.5 59.8 86.5 59.9ZM72.4 49.4H51.6C50.6 49.4 49.8 50.2 49.8 51.2C49.8 52.2 50.6 53 51.6 53H72.4C73.4 53 74.2 52.2 74.2 51.2C74.2 50.2 73.4 49.4 72.4 49.4ZM72.4 49.4H51.6C50.6 49.4 49.8 50.2 49.8 51.2C49.8 52.2 50.6 53 51.6 53H72.4C73.4 53 74.2 52.2 74.2 51.2C74.2 50.2 73.4 49.4 72.4 49.4ZM112.6 59.9H95.5C94.5 59.9 93.7 60.7 93.7 61.7C93.7 62.7 94.5 63.5 95.5 63.5H112.6C113.6 63.5 114.4 62.7 114.4 61.7C114.4 60.7 113.6 59.9 112.6 59.9ZM111 39H92.7C91.6 39 90.6 39.5 89.9 40.4C89.2 41.3 89.1 42.4 89.4 43.5L92.2 52.2C92.7 53.6 94 54.6 95.5 54.6H111C112.9 54.6 114.4 53.1 114.4 51.2V42.5C114.4 40.6 112.9 39 111 39ZM110.9 51H95.6L92.9 42.5H110.9V51ZM121.5 30.4V24.1C121.5 22.2 120 20.7 118.1 20.7H105L101.1 6.9C100 3.1 96.5 0.4 92.6 0.4H29.4C25.4 0.4 21.9 3.1 20.9 6.9L17 20.7H3.9C2 20.7 0.5 22.2 0.5 24.1V30.4C0.5 32.6 2.5 34.1 4.6 33.8C2 36.6 0.5 40.4 0.5 44.5V72C0.5 76.3 3.5 79.9 7.6 80.7V94C7.6 97.6 10.5 100.5 14.1 100.5H20.9C24.5 100.5 27.4 97.6 27.4 94V80.9H94.5V94C94.5 97.6 97.4 100.5 101 100.5H107.9C111.5 100.5 114.4 97.6 114.4 94V80.8C118.4 80 121.5 76.4 121.5 72.1V44.6C121.5 40.5 119.9 36.7 117.4 33.9C119.4 34.1 121.5 32.6 121.5 30.4ZM24.3 7.9C25 5.6 27.1 4 29.4 4H92.5C94.9 4 97 5.6 97.6 7.9L103.4 28.6H18.4L24.3 7.9ZM4 30.3V24.2H16L14.7 28.7C12.7 28.9 10.9 29.5 9.2 30.3H4ZM23.9 94C23.9 95.6 22.6 97 20.9 97H14.1C12.5 97 11.1 95.7 11.1 94V80.9H23.9V94ZM45.1 77.4L46.9 73.2C47 73 47.2 72.8 47.4 72.8H74.5C74.7 72.8 75 72.9 75 73.2L76.8 77.4H45.1ZM110.9 94C110.9 95.6 109.6 97 108 97H101.1C99.5 97 98.1 95.7 98.1 94V80.9H110.9V94ZM118 44.6V72.1C118 75.1 115.6 77.4 112.7 77.4C104.4 77.5 89.1 77.4 80.9 77.4L78.4 71.8C77.7 70.3 76.3 69.3 74.6 69.3H47.5C45.9 69.3 44.4 70.3 43.7 71.8L41.2 77.4H9.4C6.5 77.4 4.1 75.1 4.1 72.1V44.6C4.1 37.7 9.7 32.2 16.5 32.2H105.6C112.4 32.1 118 37.7 118 44.6ZM118 30.3H112.7C111 29.4 109.2 28.9 107.2 28.7L106 24.2H118V30.3ZM111 39H92.7C91.6 39 90.6 39.5 89.9 40.4C89.2 41.3 89.1 42.4 89.4 43.5L92.2 52.2C92.7 53.6 94 54.6 95.5 54.6H111C112.9 54.6 114.4 53.1 114.4 51.2V42.5C114.4 40.6 112.9 39 111 39ZM110.9 51H95.6L92.9 42.5H110.9V51ZM112.6 59.9H95.5C94.5 59.9 93.7 60.7 93.7 61.7C93.7 62.7 94.5 63.5 95.5 63.5H112.6C113.6 63.5 114.4 62.7 114.4 61.7C114.4 60.7 113.6 59.9 112.6 59.9ZM84 41.5C83.5 40 82.1 39 80.5 39H41.4C39.8 39 38.4 40 37.9 41.5L32.1 58.6C31.7 59.7 31.9 60.9 32.6 61.9C33.3 62.9 34.4 63.4 35.6 63.4H86.3C87.5 63.4 88.6 62.8 89.3 61.9C90 60.9 90.2 59.7 89.8 58.6L84 41.5ZM86.5 59.9H86.4H35.6H35.5V59.8L41.3 42.7L41.4 42.6H80.5C80.6 42.6 80.6 42.6 80.6 42.7L86.4 59.8C86.5 59.8 86.5 59.8 86.5 59.9ZM72.4 49.4H51.6C50.6 49.4 49.8 50.2 49.8 51.2C49.8 52.2 50.6 53 51.6 53H72.4C73.4 53 74.2 52.2 74.2 51.2C74.2 50.2 73.4 49.4 72.4 49.4ZM32 40.4C31.4 39.5 30.3 39 29.2 39H11C9.1 39 7.6 40.5 7.6 42.4V51.1C7.6 53 9.1 54.5 11 54.5H26.5C28 54.5 29.3 53.5 29.8 52.1L32.5 43.4C32.9 42.4 32.7 41.3 32 40.4ZM26.4 51H11.1V42.5H29.1L26.4 51ZM26.5 59.9H9.4C8.4 59.9 7.6 60.7 7.6 61.7C7.6 62.7 8.4 63.5 9.4 63.5H26.5C27.5 63.5 28.3 62.7 28.3 61.7C28.2 60.7 27.4 59.9 26.5 59.9Z" fill="black"/>
</svg>
